# xmcd CD database file
#
# Track frame offsets:
#	150
#	11380
#	24060
#	38110
#	51490
#	65155
#	78015
#	90710
#	102900
#	114600
#	126660
#	135865
#	150550
#	160705
#	172965
#	184690
#	197270
#	210925
#	224030
#	237310
#
# Disc length: 3347 seconds
#
# Revision: 0
# Processed by: cddbd v1.5.2PL0 Copyright (c) Steve Scherf et al.
# Submitted via: CDex 1.70beta2
#
DISCID=010d1114
DTITLE=Ritter, Tex - The Singing Cowboys - D2
DYEAR=1900
DGENRE=Country
TTITLE0=High Noon
TTITLE1=(I Got Spurs That) Jingle Jangle Jingle
TTITLE2=Long Time Gone
TTITLE3=Jealous Heart
TTITLE4=Boll Weevil Song
TTITLE5=I'm Wastin' My Tears On You
TTITLE6=Blood On The Saddle
TTITLE7=The Old Chishole Trail
TTITLE8=Have I Told You Lately Thatr I Love You?
TTITLE9=Green Grow the Lilacs
TTITLE10=Froggie Went A-Courtin'
TTITLE11=Rye Whiskey
TTITLE12=Careless Hands
TTITLE13=Rock and Rye
TTITLE14=I've Had Enough of Your Two-Timin'
TTITLE15=I Can't Get My Foot Off the Rail
TTITLE16=There's A New Moon Over My Shoulder
TTITLE17=You Will Have To Pay
TTITLE18=When You Leave Don't Slam the Door
TTITLE19=Deck of Cards
EXTD=
EXTT0=
EXTT1=
EXTT2=
EXTT3=
EXTT4=
EXTT5=
EXTT6=
EXTT7=
EXTT8=
EXTT9=
EXTT10=
EXTT11=
EXTT12=
EXTT13=
EXTT14=
EXTT15=
EXTT16=
EXTT17=
EXTT18=
EXTT19=
PLAYORDER=
